<svg version="1.2" xmlns="http://www.w3.org/2000/svg" viewBox="0 0 720 720" width="720" height="720">
	<title>New Project</title>
	<style>
		.s0 { opacity: .13;fill: #521406 } 
		.s1 { opacity: .2;fill: #094d7a } 
		.s2 { opacity: .82;fill: #e168d7 } 
		.s3 { opacity: .88;fill: #08bee1 } 
		.s4 { opacity: .97;fill: #c4e088 } 
		.s5 { opacity: .98;fill: #091a2d } 
		.s6 { opacity: 1;fill: #064793 } 
		.s7 { opacity: 1;fill: #0a76c1 } 
		.s8 { opacity: 1;fill: #f3f9fa } 
	</style>
	<g id="Layer 1">
		<path id="Path 0" fill-rule="evenodd" class="s0" d="m533 542l4 6h4l9 8-9 1 1 8-9 2zm3 13h1v-1h-1zm2 1h1v-1h-1zm1 1h1v-1h-1zm-17-13h1v1h-1zm-12 11l1-2 4 2v63 1 7 1 4l-3 2-5-2-1-1v-5l3 2h-1v2l2-2v-4l-4-2v-63-1zm-1-1h1v1h-1zm-264 23l-8 2-19-7v10h-5l-4 19v-39l9 6v-7l3 1 2 1 1 1 2 1 1 1 4 3h1l1 1h1l1 1 1 1 3 1 1 1h1l1 1 2 1zm-82-5l1 26-4-9zm313 3h1v1h-1zm3 12l9-4v14l9-1v25l-6 2v3l-3-1v3l-1-3-3 3 4 2v2 1l9-2v7l-9 2v-1-1l-1-1h-1-1v-1l1-1h1 1l-1-1h-1-1l-1 1h-1l-1 1h-2l-1-1v-1-5-2-1-2-1-6-2-27zm0 37h1v-1h-1zm3 3h1v-1h-1zm-228-30l-9-9h9zm-3-4h1v-1h-1zm206-6h1v1h-1zm102 15l1 5-9 6zm-18 1l1 17-9 3zm-17 13h7l2-4-1 5-6 3h-2zm0 6l2-2-2 3zm-207 6h1v1h-1zm178 1h1v1h-1zm-234 2h2v1h-2zm62-1h1v1h-1zm21 1l-4-1h1zm79-1h1v1h-1zm-166 1h1v1h-1zm163 1h1v1h-1zm-4 1h1v1h-1zm-162 2l2 1-1 1h-1zm231-1h1v1h-1zm-69 1h1v1h-1zm63 3v-2h1l2 1v1l-1 1h-1zm3-1v-1h1 1v1zm-224 0h1v1h-1zm50 15l-9-1v-13l9 1v5 1zm-1-7h1v-1h-1zm-5 2h1v-1h-1zm182-10h1v1h-1zm-228 1h1v1h-1zm3 1v-1h4v1zm83 0l-1-1 2 1zm140 0l1-1h1l2 2-2 1-2-1zm-3 2v-2h1l1 1v1l-1 1zm-153 12l1-8 4 1 2 1 1 1h1v9 1l-3-2h-1l-5-1v-1h2zm106-6l2-1v1zm-11 1l1-1h3v3 2l-19 5h-1l-2 1-1 1h-1l-2 1h-1l-2 1h-1-1-2l-1 1h-1l-1 1-9 1v-1-3h-9v-2h4v-1l-1-1v-1h3l1 2v-2l2 1v1 1l3 1 3-1 3-1v1 1h5l-2-3 1-1h1 2l2 3 4-2v-4l-5 2v-2h1l1-1 3-1h2 1l1-1h1v3l3-1h1l2-1 1-1h2zm-82 2l-3 2v-3zm3 2l2-3h1l2 1 6 1v5 1h1l1 1v-1h1 1l1 1h1 1l11 2 2 3h1l3 1-16 2-17-5zm31 2h1v1h-1zm-2 3v-2h2l1 1v1zm18 0l1-1h1zm14 1h1v1h-1zm-10 3h1v1h-1zm-20 6h1v1h-1zm-3 1h1v1h-1z"/>
		<path id="Path 1" fill-rule="evenodd" class="s1" d="m284 93l9-2v5l-1-4zm128 0l6-2 4 3zm-118 18l2-1-2-9 3 10zm-47-4h1v1h-1zm-15 7h1v1h-1zm143 2v-1l21 3h-4l-1-1h-8l-7-1zm102 1h1v1h-1zm7 4h1v1h-1zm-266 1h1v1h-1zm79 0h1v1h-1zm190 1h1v1h-1zm-196 1h1v1h-1zm197 0h1v1h-1zm-274 1h1v1h-1zm73 0h1v1h-1zm-6 2h1v1h-1zm211 0h1v1h-1zm-281 1h1v1h-1zm12 4l-13 2 1-5v4zm52-3h1v1h-1zm-3 1h1v1h-1zm223 2l-9 2-7-3zm-232 2h1v1h-1zm194 2v-1l2 1zm-199 0h1v1h-1zm-2 1h1v1h-1zm208 1h1v1h-1zm-212 1h1v1h-1zm-4 2h1v1h-1zm-2 1h1v1h-1zm232 3h1v1h-1zm5 3h1v1h-1zm2 1h1v1h-1zm5 3h1v1h-1zm4 3h1v1h-1zm2 1h1v1h-1zm4 3h1v1h-1zm6 4h1v1h-1zm4 3h1v1h-1zm1 1h1v1h-1zm4 3h1v1h-1zm1 1h1v1h-1zm1 1h1v1h-1zm1 1h1v1h-1zm-321 3h1v1h-1zm325 0h1v1h-1zm1 1h1v1h-1zm3 3h1v1h-1zm-345 11h1v1h-1zm358 2h1v1h-1zm1 1h1v1h-1zm1 1h1v1h-1zm1 1h1v1h-1zm-366 1h1v1h-1zm367 0h1v1h-1zm3 4h1v1h-1zm3 3h1v1h-1zm-380 1h1v1h-1zm-1 1h1v1h-1zm384 2h1v1h-1zm1 1h1v1h-1zm-388 1h1v1h-1zm-4 5h1v1h-1zm399 4h1v1h-1zm-403 2h1v1h-1zm406 2h1v1h-1zm-410 4h1v1h-1zm-2 3h1v1h-1zm419 4h1v1h-1zm1 2h1v1h-1zm3 5h1v1h-1zm-430 1h1v1h-1zm-2 4h1v1h-1zm-1 2h1v1h-1zm-1 2h1v1h-1zm-1 2h1v1h-1zm442 3h1v1h-1zm-444 1h1v1h-1zm-1 2h1v1h-1zm-1 3h1v1h-1zm-1 2h1v1h-1zm-1 2h1v1h-1zm-1 3h1v1h-1zm-1 3h1v1h-1zm-2 4h1v1h-1zm-1 4h1v1h-1zm-2 5h1v1h-1zm-6 25l1-3v1 2zm-1 5l1-5v4 1zm-1 5l1-3v3zm-1 8l1-3v3zm485 69l2-16-2-56 3 13v46zm-486-58l1-11v2 9zm-1 10l1-10v4 6zm6 66l-2-10 2 5v1zm450 69h1v1h-1zm-2 5v-2h1zm-414 6l-2-3 2 1zm7 10h1v1h-1zm1 2h1v1h-1zm390 4h1v1h-1zm-1 1h1v1h-1zm-2 3l2-2-2 3zm-1 1h1v1h-1zm-1 1h1v1h-1zm-3 4h1v1h-1zm-1 1h1v1h-1zm-9 10l1-1-1 2zm-1 1h1v1h-1zm-4 4l2-2h1l-3 3zm-2 2l1-1h1l1 4-8 3h-1l3-3 1-1h1v-1zm-8 7l1-1h1l1 1 1 21 5 1 4 5-2 3 2 25-17 18h-1v-63l-4-2 3-3h1v-1l1-1 1-1h1 1v-1zm-1 3h1v-1h-1zm-4 3h1v-1h-1zm-297 9l-8-2-1-5 3 2zm-7-4h1v-1h-1zm299-2v-1h1l-1 2zm-4 2l3-2 1 1-4 2zm-3 2l1-1h1 1v1l-7 4v-1l1-1 2-1zm-285 3v-1l3 1v1zm307 0h1v1h-1zm-27 1h1v1h-1zm-2 1h1v1h-1zm31 0h1v1h-1zm-32 1h1v1h-1zm31 0h1v1h-1zm-300 1h1v1h-1zm267 1v-1h1 1zm-2 1l1-1h1zm37-1h1v1h-1zm-297 2h1v1h-1zm4 3h1v1h-1zm247 1l1-1h2l-4 2v-1zm-2 1h1v1h-1zm-3 2l3-1-1 2h-2zm-233 1h1v1h-1zm230 1l2-1v1zm-5 2l4-1-1 1-1 1-1 10-9 7-1-2v-2l1-8-3 2h-1l8-6h1l1-1h1 1zm2 1h1v-1h-1zm-3 1h1v-1h-1zm-3 1h1v-1h-1zm-213-2h1v1h-1zm2 3v-2l6 3zm6 2l1-1 1 1v1zm3 1v-1l2 1h-1zm2 1v-1l2 1zm7 27l-1-26 7 3h1l1 1h1l2 1 1 1 1 2 2 6-1 1 2 1 1 1v1l1 1v1l1 1v1l1 1 4 6h-1 1l8 6-5-2v4l-2-2-7 5 1 3 8 2-2 3h-9l2 13-9-1v-14-3-6l-5-5-1-1zm8-21h1v-1h-1zm14 24h1v-1h-1zm1 1h1v-1h-1zm3 3h1v-1h-1zm158-32l1-1h1l2 5-2 2h2l-3 6-7 2 1-3 1-1 1-1 2-6 1-1zm-9 17l1-1h1l-3 3zm-3 4l1-1h1l-2 3zm82-1h1v1h-1zm-84 4l1-1h1l-5 6v-2zm74 5l8-2v4 2 1l-1 6-8 2v-4-1-7zm-78 0h1v1h-1zm-3 4l2-3h1zm6 13l2-13 9 6v6h-1-1 1l1 1v12l-9 2v-5-3l-3 1h-1l-1 1v1h-1l-1 1h-1-1v-10l2 1h1l4-1v1h2zm-7-13h1v1h-1zm-126 17v-14l-4-2 7 2 1 1h1 1v1h1 1l1 1v1h1v-1h3l1 1h1v1l-2 1h2l2 1h1l3 1-3-1h-1l-1-1v-1-1h1 1 3v1h1l1-1h9v1l4 1 9-2h1 1l2 1h1 1 1l2 1h1 2l6 1v1h1 5 8l1 1h1 1l24-1h1 3v1h-1v1l1 1 1-1h1l1 1v1l-4 8h-3l-1-1v-1h1v-1l-1 1-3 1h3l1 1-1 4-1-2-3 2h-1v-4l-4 3 2 1v1h-2l-2-1-1 2-1 1v-3l-1 3h-1l-1 1h-1-3l-13 1h-1-3-1l-2 1v2 1 2l-11-2h-1-1l-1-1h-1-1l-2-1v-5-3l-11-4v-5h1l-2-1-6-2 2 9-3 2h-1l-2-1-2-2h4l-6-3v-3l-2 1 2 6-1 8v1 1l-18-3v-7-1zm4-12h1v-1h-1zm4 2h1v-1h-1zm9 3h1v-1h-1zm4 2h1v-1h-1zm6 1h1v-1h-1zm79 0h1v-1h-1zm-3 1h1v-1h-1zm1 3h1v-1h-1zm-80 1h1v-1h-1zm11 0h1v-1h-1zm68 3h1v-1h-1zm-78 2h1v-1h-1zm72 0h1v-1h-1zm6 0h1v-1h-1zm-3 1h1v-1h-1zm-6 1h1v-1h-1zm-2 2h1v-1h-1zm-6 2h1v-1h-1zm-38 6h1v-1h-1zm1 1h1v-1h-1zm67-28l9-7h1v1l2 7h-2l-8 3-2-3zm5-1h1v-1h-1zm-3 2h1v-1h-1zm-217-7l9 2v7l-9-3zm299 5v-2h1 1zm-88 2l3-1 1 1-3 1h-1zm-157 1v-1l2 2zm154 1v-1h1 1 1v1zm65 3l1-1v1zm3-1h1v1h-1zm-3 2l-2-1h2zm2-1h1v1h-1zm-230 7l-9-2 1-4 8 2zm230-5l1-1h1l1 1 1 1v1h-2zm-221 1v-1l9 2v1 5l-9-1zm219-1h1v1h-1zm-2 1h1v1h-1zm1 2v-1h1l2 1zm-139 7l1-2 1 2zm83 2v-3h5zm-90 7h1v1h-1zm68 1l2-1-1 1zm-65 0h1v1h-1zm53 4l1-1h1v1zm4-1h1v1h-1z"/>
		<path id="Path 2" fill-rule="evenodd" class="s2" d="m229 152h1v1h-1zm-8 5h1v1h-1zm-1 1h1v1h-1zm-5 3h1v1h-1zm-4 3h1v1h-1zm-20 17h1v1h-1zm-1 1h1v1h-1zm-1 1h1v1h-1zm-1 1h1v1h-1zm-1 1h1v1h-1zm-1 1h1v1h-1zm-1 1h1v1h-1zm-1 1h1v1h-1zm-1 1h1v1h-1zm-1 1h1v1h-1zm212 14h1v1h-1zm-2 3h1v1h-1zm-2 3h1v1h-1zm-1 2h1v1h-1zm-1 1h1v1h-1zm-3 6h1v1h-1zm-1 2h1v1h-1zm-3 7h1v1h-1zm-4 14h1v1h-1zm-27 16h1v1h-1zm24 3h1v1h-1zm-208 29v-2h1zm393 4h1v1h-1zm-211 3v-1h1v2h-1zm211 0h1v1h-1zm-393 10v-5l1 5zm181-4h1v1h-1zm-2 6h1v1h-1zm-178 5v-3l1 3zm-6 3l3-5v21 39h-9v-41l6-12v-1zm181 2h1v1h-1zm-1 1h1v1h-1zm-173 3l-1-2h1zm173-1h1v1h-1zm-1 2v-1h1l1 1-1 1h-1zm-171 3h1v1h-1zm217 0h1v1h-1zm-215 10l-2-9 1 1v2l1 1v3zm166-7l1-1v1 1h-1zm-1 2h1v1h-1zm-2 3h1v1h-1zm-1 3v-1h1v1 1h-1zm-159 3l-1-1h1zm158-1h1v1h-1zm-158 1h1v1h-1zm1 2v-1l1 2h-1zm155 0l1-1h1l-1 2h-1zm0 2h1v1h-1zm-3 3h1v1h-1zm-148 5h1v1h-1zm133 15h6l5-6-2 7-1 1-3 4v26l-8 9-1-27v-10l2-2 1-1v-1zm-2-1h1v1h-1zm225 0h1v1h-1zm-235 11v-1h1 1zm-3 2l1-1h1l-3 10-5 10-5 25-6 14-7 7-1-9-9 9v-26l4-6-2-12-3-7 3-1 1 1 1-1h1 1l4-1 1-1 1-1 1 1 2-1h1l2-1v-1h1 1 1l1-1 2-1 1-1h1l3 1 2-2h-3v-1h1 1 1l1-2h1zm132-1h1v1h-1zm93 0h1v1h-1zm-84 6l-3-1h1zm-155 2l1-1v1 1h-1zm156-1h1v1h-1zm2 1v-1h1v1h1 1v1l3 2h2l1 1h1l5 2h1l3 1h2l9 1h1 1 3 2l1 10v2 39l-8 14-1-51-1-5-4 6-3 8-2-6-8 11-2 10-7-1v-17-20zm5 1h1v1h-1zm-176 4l1-1v1zm-42 3l-1-2h2l1 1h2 1 2l1 1h1 1l7 3h-7l-5-1h-1l-2-1zm234-2h1v1h-1zm-224 1h1v1h-1zm20 0h1v1h-1zm2 0h1v1h-1zm-105 98v-19l9 7v26h-1v-1-1h-1v1l-7-11zm297 33v-1h1l1 1v1l-2 2zm-225 40l4 3v1l-4-3zm189 3v-1h1l1 2zm-184 1v-1l1 2zm170 1v-1h2l-1 1zm-6 0h1v1h-1zm-160 2v-1l3 2zm100-1h1v1h-1zm51 0h1v1h-1zm74 26l9-7v3 46h9v2 1l-27 5v-12-1l10-3-1-16zm-189 20v-3l3 5zm9 14l-5-11 5 5zm-27 4v-6h1 1v1 1l1 1 1-1 1-1 1 1 1 1h2v3 2 1h-4v-1h-1l-1-1h-1zm22-1l2-2 3 2v14l-7-1-1-4 3 1 1-2-5-1v-1l1-1h1-1-1v-6zm-20 5l1-1h1v1l-2 1zm183 7v-2h1l1 1-1 1zm-106 1h1v1h-1zm92 3l5-3h2 2v3h-1l-1 1h-3l-1 1h-3zm-90 7v-9l1 1v3l3-2 1 1h1l1 1 2 9-5-3h-1l-2-1zm69-8h1v1h-1zm-7 5l5-2v4l-4 2-2-3zm-20 0h1v1h-1zm12 3l2-1h1l2 3h-5v-1zm-35 0h1v1h-1zm29 2l1-1h2zm-10 4l-2-3h9v3l-1 1h-1-1l-3-1zm19-2h2-1z"/>
		<path id="Path 3" fill-rule="evenodd" class="s3" d="m336 116l9-1h30v1l-34 1 3 25 20 40 6 33-5 31-2 3-4-3-1 8-7-5-1-1-12-36-23-26 3 2-1-6-6-5h-3v5l-22-9h-36l9-7-2-6 5-4 1-7-22 8h-8l-2-3-8 3 6-4 1-1 16-9 1-1h1l1-1 3-1 1-1 3-1 1-1h1l1-1 4-1 1-1 8-3 1-1h2l1-1 5-1 1-1 5-1 1-1h3l1-1h1l3-1h1l1-1h4l2-1h2l3-1 3-1h4l2-1h6l2-1h1l7-1zm55 1h1v1h-1zm86 57h1v1h-1zm11 4h1v1h-1zm-307 14l1-1h1v13h4v5l-13 21-1 1-4 7v4l5-1-3 8-9 13-3 12-4 47-9-6v-4l-9-1-12-11-4 8v-1-2l1-2v-3l1-2v-1l1-3 1-2v-2l1-2v-2l1-1v-1l1-2v-1l1-1v-3l1-1v-1l1-2 1-1v-2l1-1v-2l1-1v-1l1-1v-1l1-1v-2l1-1v-1l1-1 1-3 1-1v-1l1-1v-1l1-1v-1l1-1 1-3 1-1 6-11 1-1 1-2 1-1 3-5 1-1 3-5 1-1 3-4 1-1 2-3 1-1 1-1 6-7 1-1zm169 59v-2h1zm0 6v-4l1 2v1 1zm-179-1l1-2v1 1zm-1 5l1-2v2zm181 7v-4l1 4zm-3 25h1v1h-1zm-228 20v-4h1zm-1 3v-2h1l-1 5zm-1 7v-4h1zm-1 6v-2h1zm440-2h1v1h-1zm-2 14v-4h1v4zm-439 1v-4h1zm433-1v-3l2 1v1zm5 4l1-3v3zm-7 3h-4l2-2zm-432 4v-4h1zm436 1v-2h1v2zm-26 23l-1-5 17-19v7l-1 1-2 3-1 1v1h-1l-1 1-1 2-3 3-1 1-2 2-1 1zm10-10h1v1h-1zm-141 53l-3-3 5 4h-1zm2 1l4 2 1 1 3 3 1 1 1 2h-1l-2-2-1-1zm10 10v-1l2 1-1 1zm1 1h1v1h-1zm2 2l1-1 4 7-2-1-1-1zm5 8v-2l2 1zm82 122l1-1h1v1h-1zm-2 2l1-1v1zm-18 12l1-1h2v11 1l-9 5v-3l1-10 1-1 1-1 1-1zm-222 11v-5l6 1v1l2 1h1 1l1 1h2l1 1h1 2l1 26v3 16 6 1l-9-2v-1-2-3l2 1-2-2h-2-1l-1-1-1 1h-1-1v-1-1l-1-1h-1v-31zm204-1l3-2-1 8-2-5zm2 8h-2l2-2zm-10 8l7-2 3-6 1 2v18l-9 13-9-6-2 13-4 1h-1l-2-1v-4h2l-2-7 1-1v-1l3-3 1-1 5-6 2-3v-1l3-3v-1zm-164 0l1-1 1 2zm78 10h1v1h-1zm74 5l1-2v2zm-88 5l5-2h1l10 2h1l5 2 3 1h-14zm26 3v-1l7 1v1h-3zm-53 3h1v1h-1zm6 0h1v1h-1zm11 0h1v1h-1zm-17 2h-2l2-1zm92 3h1v1h-1zm36 0h1v1h-1zm-10 2v-1l2 1z"/>
		<path id="Path 4" fill-rule="evenodd" class="s4" d="m476 174h1v1h-1zm7 2h1v1h-1zm3 1h1v1h-1zm4 2h1v1h-1zm4 2h1v1h-1zm2 1h1v1h-1zm4 2h1v1h-1zm1 1h1v1h-1zm9 6h1v1h-1zm1 1h1v1h-1zm17 17h1v1h-1zm3 4h1v1h-1zm-145 4h1v1h-1zm148 0h1v1h-1zm4 6h1v1h-1zm-155 1h1v1h-1zm-1 3v-1h1l-1 2zm159 1h1v1h-1zm-160 1h1v1h-1zm-210 20l3-8-5 1v-4l4-7v7l7-5-6 16v-3l-1 3zm209-17v-1h1l-1 2zm-1 3h1v1h-1zm167 2l-1-2h1zm-168 3v-3h1zm169 0h1v1h-1zm-170 1h1v1h-1zm172 3l-1-2h1v1zm1 2l-1-2h1zm-174 1v-1h1l-1 3zm174 0h1v1h-1zm-377 5v-3h1zm378-2h1v1h-1zm-176 6v-5h1l-1 7zm-203-2l1-2-1 3zm381 1l-1-2h1zm-382 4v-3h1zm179-2h1v1h-1zm24 4v-2h1v2zm180-1h1v1h-1zm-384 3v-2h1zm167 67l-2 1 2-10-2-15 7-1h-7v-41l7 2 2-5h5l-1 32v1 2 1 4 2h-1l-2 6v3 1 1h-1l-2 1h2v1l-1 1-1 2-1 1 1 1v1h-1l-1 1v1l-3 3 2 1v1h-1zm37-49v-19h1v16 1 2zm182-15l-1-3h1v2zm1 4l-1-3h1zm-206 4v-6h1zm-183-1v-2h1zm390 2l-1-2h1zm1 12l-1-6h1v4zm-184-2v-2l1 7h-1zm-209 3l1-3v3zm183 5v-1h1l-1 2zm27 1v-2l1 3h-1zm183 1h1v1h-1zm-211 5v-2h1v2zm211 0v-2h1v2zm-182 1v-2l1 2zm1 4v-3h1v3zm1 2v-1l1 2h-1zm-213 0h1v1h-1zm392 5l1-5v1 4zm-213-2h1v1h-1zm36 4h1v1h-1zm1 3v-1l1 2h-1zm-215 4v-2h1 1v1l-1 1zm389 4l1-2v2zm-171 1v-2l1 2zm170 2l1-2v2zm-221 7l2-1v1h-1zm-1 2l1-1h1v1h-1zm59 2v-1l1 2h-1zm159 0h1v1h-1zm-220 3l1-1v1zm63 1v-1l1 1zm-67 5l1-3 1 1v1l-1 1zm71 1l-1-2 3 4-1-1zm149-1h1v1h-1zm-369 3h1v1h-1zm367 1h1v1h-1zm-5 8h1v1h-1zm-2 3h1v1h-1zm-1 1h1v1h-1zm-3 4h1v1h-1zm-118 1h1v1h-1zm1 1h1v1h-1zm-223 1h1v1h-1zm337 0h1v1h-1zm-1 1h1v1h-1zm-2 2h1v1h-1zm-1 1h1v1h-1zm-1 1h1v1h-1zm-325 2h1v1h-1zm320 2h1v1h-1zm-228 2h1v1h-1zm222 2h1v1h-1zm-302 2h1v1h-1zm229 1v-1l2 1h-1zm-163 2l2-1v1zm-59 1v-1l1 1v1zm5 2v-1l2 1h-1zm46-1h1v1h-1zm-4 1h1v1h-1zm-30 2h1v1h-1zm20 0h1v1h-1zm211 1v-1l2 1zm-229 5l-1-2h7v1l-1 1-2-1h-1-1zm166 29h1v1h-1zm3 3v-1l2 1-1 1zm13 135v-1l8 2-1 24-7 12-9 7-8 1-1 1-15 1 5-3 26-15 7-13-1-11v-4zm-6 0h1v1h-1zm-7 1h1v1h-1zm-11 2h3l-3 1zm3 0l2-1v1zm-84 28l-4-6-1-21 9-1h1v1h-4v15l8 16 9 7 25 4h-1-3-1l-1-1h-14-4l-2-1h-2l-1-1h-1l-5-3-1-1h-1l-2-2v-1h-1zm6-27v-1h2v1zm3-1h1v1h-1zm11 2l-2-1h1 1zm1-1h1v1h-1zm2 1v-1h4v1 1zm47-1h1v1h-1zm2 1v-1h3zm-44 1v-1h1 1 18 3 1 1 11 5l-14 1v8l-9 2-1 14-8-1v-8l-9-5zm-25 30h1v1h-1zm3 3h1v1h-1zm45 8v-1l9 1zm139 11v-4l4 2v4h-1zm-131 1l-3-1h4v1zm113 4l-4-2 3-3 1 3zm-105-3v-1l6 1zm-129 1h1v1h-1zm225 6h-4l-1-3 5-2zm-219-3h1v1h-1zm226 3h1v1h-1zm-3 2v-1h1 1v1h-1zm-227 0h1v1h-1zm-2 2v-1h1 1v1 1 1zm3-1h1v1h-1zm225 1v-1h2v1h-1zm4-1h1v1h-1zm-228 1h1v1h-1zm223 1l1-1v1 1h-1zm6-1h1v1h-1zm-48 4h1v1h-1zm1 2v-1l3 1v5l-9 1v-3-1-1h1l2 1h1 1 1l1-1zm-2-1h1v1h-1zm-33 6h1v1h-1zm-10 4l1-1h1v2l-1 1h-2-1l-1 1h-1-1l-1 1-3 1h-2l-1 1-3-1v-1-1l-2-1v-1l13-1h3zm-69 1v-1l2 1zm45 1l2-1v1zm3 0v-1h3v1zm-1 0h1v1h-1zm5 0v2l-1-2zm-7 3v-1h3 1v1z"/>
		<path id="Path 5" fill-rule="evenodd" class="s5" d="m284 93l8-1 1 4 1 3v2l2 9-2 1-9 2-3 1h-1l-2 1-6 2h-1l-9 3h-1l-2 1h-1l-9 3h-1l-8 3h-1l-2 1h-1l-7 2-2 1h-2l-3 1-12 1v-4l4-4 3-2 1-1 2-1 3-2 2-1 5-3h1l1-1 6-3h1l6-3h1l1-1 5-2 2-1h1l7-3 2-1 3-1 2-1h1l2-1h1l5-2 3-1zm128 0l10 1h1l8 3 3 1 7 3h1l2 1 3 1 4 2 3 1 4 2h1l18 9 1 1h1l3 2 2 1 1 1 2 1 2 2 3 2 1 1 2 3v1l-16-1h-2l-9-3h-1l-3-1-7-2-2-1h-1l-9-3h-1l-2-1-7-2-2-1h-1l-3-1-5-2h-1l-3-1-9-2h-1l-1-4v-2l3-10zm144 239v-3h1v1l1 1zm-1 0h1v1h-1zm-2 5h1v1h-1zm2 4h1v1h-1zm-1 4h1v1h-1zm-7 6h1v1h-1zm4 2h1v1h-1zm-11 10l1-2 1 8-1 2-6-2 1-1v-1h1l1-2 1-1v-1zm-198 48l10-2h4l8 1h2l9 3 2 2h1l3 1 3 3h1l1 1 3 2 1 1 2 1 6 6 17 22 10 20 11 29 4 23-6 1-2 6-16-5-1-4-15-5-2-4-62-4-1 5-15 7-23 2 1-17 13-41 2-9h1l2 1-1 3h8l3-5-1-24v-1l1-1v-1l1-1v-1l2-2 1-2 2-2 2-3h1l1 2v9l8-7v-4l-3 3-5-1 1-2 1-1h3v-2l-3 2-1 1h-2v-1l3-3 2-1 1-1zm-19 22l1-1-3 7v-1l1-3 1-1zm-4 10l1-4h1l-3 7v-2zm-3 5l1-2h1l-1 10h-3l1-5 1-1zm27 124h1v1h-1zm99 40h1v1h-1zm-87 2v-1h3v1zm10 0h1v1h-1zm-24 15h12l-9 2-3-1zm-11 0h1v1h-1zm27 1l-2-1h2zm-22-59h3-1-1z"/>
		<path id="Path 6" fill-rule="evenodd" class="s6" d="m476 174l-6-4-8-17-6-6 1-11h2l5 2 1 1h1l2 1 2 1 2 1 2 1 2 1 2 1 1 1 2 1 2 1 1 1h1l1 1 2 1 2 1 1 1 3 2 1 1h1l1 1 3 2 1 1 2 1 2 2h1l1 1 3 2 1 1 1 1 3 2 1 1 1 1 1 1 1 1 3 2 1 1 1 1 2 2 1 1 3 3 3 3 3 3 3 3 1 1 1 1 1 1 1 1 1 1 2 3 1 1 2 2 1 1 2 3 1 1 1 1 2 3 1 2 2 2 1 2 1 1 2 3 1 1v1l3 4 2 3 1 2 1 1v1l1 1 1 2 1 2 1 1 1 2 1 2 1 2 1 2 1 2 1 2v1l1 1 2 5 1 2 2 5 1 2v1l3 7v1l1 2v1l1 2 2 6v2l3 9v1l1 3v1l3 15v3l2 56-2 16v3l-1 5-2 10v1l-1 3v1l-3 9v2l-3 8v1l-1 2v1l-3 7v1l-1 2-1 3-1 2-1 2v1l-1 2-1 2-1 1v1l-1 2-1 2-1 2-1 2-1 2-1 2-1 1v1l-1 1-1 2h-1v1 1l-1 1h-1l-18-12-15 1-3 3-1-5-8 5-67 51-3-3v-1l-1-1v-1h-2l1 1v1 7l-6 8v24l-5-5-20 7-3 1h-1-1-1l-1 1h-5-1-1l-1 1h-2-2l-2 1h-3-1l-1 1h-4-3-1-1l-6 1h-11-1-1-3-18l-3-1h-4-1-3-1-1-2-4l-1-1h-1-1-2-1-1l-28-6-1 8-1-27-2-9-2 2-5 13-5-4v-1h-4l-3 2h-5l-17-2-17 7-9 8-3-1-6-5-3-2-1-1-3-2-7-6-8-8-6-6-1-1-2-2-1-1-1-1-1-1-1-1-1-1-2-3-1-1-1-1-1-1-1-1-2-3-1-1-1-1-2-3v-1-26l-9-7v19l-2-1-2-3-1-2-1-1v-1l-1-1-1-2-1-2-1-1-1-2-1-2-1-2-1-2-1-2-1-2v-1l-1-1-2-5-1-2-1-2-1-3-1-2v-1l-3-7v-1l-1-2v-1l-3-8v-2l-3-9v-1l-1-3v-1-4l1-1 24 6v4l22 17 57 30 4-1 6 5 2-2 12 7 32 6 18-8v-4l5-4 2-3 1-2 6-4-2 9-13 41-1 17 23-2 15-7 1-5 62 4 2 4 15 5 1 4 16 5 2-6 6-1-4-23-11-29-10-20-17-22-3-3h2l-2-1 3-1 13 12 1 1 2 3 8 10-6-11-3-9 7-6-1-2h4l2-7 2 2 3-3 10 2 3-2v17l7 1 2-10 8-11 2 6 3-8 5-1 1 51 8-14v-39l2-1-2-1-1-10h8 1l1-1h4l2-1h1l2-1h3l1-1h2l1-1h1l1-1h1l1-1 3-1h1l1-1 1-1h1l1-1h1l1-1 1-1 2-1 1-1 1-1h1l1-1 1-1 1-1 1-1 1-1 1-1 1-1 1-1 1-1 1-1h1l6 2v1-1l1-2h1l4-6 3-6 1-3 1-1v-2-1l1-1 1-3 1-1v-3l1-1v-4l-2-1v-1-1-2h1l1 1v-1l2-1-1-1v-1l1-1v-1l-1-1v-1-2-3l1-1v-1-4l1-2v-4l1-8v-2-1-1-1-1l-1-9v-4l-1-3v-3-2l-1-1v-2-3l-1-2v-2l-1-1v-1-1l-1-1v-3l-1-1v-2l-1-2v-1l-1-1v-1-1l-1-1v-2l-1-1v-1l-1-1v-1l-1-1v-1l-1-1v-2l-1-1-1-1v-1l-1-1v-1l-1-1v-1l-1-1-1-1v-1l-1-1v-1l-1-1-1-1v-1l-1-1-1-1v-1l-1-1-1-1-1-1v-1l-1-1-1-1-1-1v-1l-1-1-1-1-1-1-1-1-1-1-1-1-1-1-1-1-1-1-1-1-1-1-1-1-1-1-1-1-1-1-1-1-1-1-1-1h-1l-1-1h-1l-1-1-1-1-1-1h-1l-1-1-1-1-1-1h-1-1l-1-1-1-1-2-1-2-1h-1l-1-1-2-1h-1l-1-1h-1l-2-1-6-2h-1zm-85 30h3l-2 3v1l-2 2-1 2-1 1v1 1l-1 1-1 1v1l-1 1v1l-1 1v1 1l-1 1-1 2v1l-1 1v1 1l-1 1v1l-1 3-1 2v3l-1 1v1 1 1l-1 2-1 1v4 5l-1 3v2 1 19l1 4v5l1 4v1l1 3v1 2l1 1v3l1 2v1l1 3v1l1 1v1 1l1 2v1l1 2 1 2v1l1 1v2l1 1v1l1 2 1 1v1l1 1v1l1 2 1 1v1l1 1v1l1 1 1 1v1l1 1v1l1 1 1 1 1 2 1 1 1 1 1 1 1 2 1 1 2 2v1l1 1 1 1 1 1 1 1 2 2 2 2 1 1 1 1 1 1 1 1 1 1 1 1 1 1 1 1h1l1 1 1 1 1 1h1l1 1 1 1 1 1h1l1 1h1l1 1 1 1h1v1l3 1h1v1l1 1h1l2 8-27-16-18-18-11-17-14-32-3-26-2 1-1-39 6-23zm-230 113l-2-21 4-10 3 2v2 12 5 1l1 3v3 5 2l1 2h1v1 1 1 1 1l2 9h1 1v1 1 1l1 1v1l1 1v1l1 1v1l1 1v1l1 1v1 1l1 1v1l1 1 1 1 1 2 1 1 1 1v1l1 1 1 1 1 1v1l1 1 1 1 1 1 1 1v1l1 1 1 1 1 1 1 1 1 1 1 1 1 1 1 1h1l1 1 1 1 1 1 1 1h1l1 1 1 1 1 1h1l1 1 2 1 1 1h1 1l1 1 2 1 2 1 1 1h1 1 1l1 1h1l1 1 1 2 2 1 2 1h1l5 1 1 2 1-1h1 1l2 1 1-1v-1l-7-3h1 1 16 1 1 1 1l1-1h1l3 7h-33l-28-12-23-22-17-34v-21zm188-17v-2l3 10-1 14-13 27-17 20 2-7-5 6h-6v-1l1-1 1-1 1-1 1-1 1-1 1-1 1-1v-1l1-1 1-1 1-1 1-1 1-1v-1l1-1h1v-1-1l1-1 1-1 1-1v-1h1l1-1v-1l1-2v-1l1-1 1-1v-1l1-1v-1l1-1v-1l1-1 1-2v-1l1-1v-1l1-1v-1l1-1 1-1v-1-1-1l1-1v-1-1l1-1v-1l1-2v-1l1-2v-1-1l1-2 1-3v-1zm207 28v-2h1v1 1 1h-1zm-387 0h1v1h-1zm386 2v-1h1v3h-1v-1zm-385 1h1v1h-1zm1 6v-2h1v1 1zm382-1h1v1h-1zm0 2l1-1h1v4 1l-1 3v1l-1 3-1 1-1 1v2 1l-1 3-3 6-4 6h-1l-1-8v-1l1-1 1-2h1v-1-1h1v-1l1-1v-1h1l1-1h-1v-2l1-1h1v-1-1l1-1v-2l1-1v-1l1-1v-1zm-13 24v-1h1l-1 2zm-2 3v-1h1zm-1 2v-2h1zm-2 1h1v1h-1zm-225 1h1v1h-1zm-2 2v-1h1 1l-2 2zm-2 2l1-1h1v10l-12 7 3-10v-1h1l2-1v-1l1-1 1-1h1v-1zm-9 6h1v1h-1zm-1 2v-1h1zm-2 1v-1h1l-1 2zm-5 3v-1h1 1 3l-2 2zm-2 0h1v1h-1zm-2 2v-1h1 1zm-1 0h1v1h-1zm163 3l-3-2h1l1 1h1zm-168 0v-1h2zm-3 1v-1h1 1zm174 0l-1-1h1zm-177 0h1v1h-1zm183 2l-5-2h1 1l2 1h1zm-187 0v-1h1 1 1 1zm-40 0h1v1h-1zm37 0h1v1h-1zm194 1l-3-1h2 1zm-225 0h1v1h-1zm236 1l-9-1h1 1 2l2 1h2zm-133 21l3-2v1l-1 1zm-2 3l-1-2h2zm0 0l5 1 3-3v4l-8 7v-5zm58 7h1v1h-1zm-70 6l1-1 1 24-3 5h-8l1-3 1-1 1-10 3-7zm-11 24l2-5-1 5zm3 1l-2-1h2zm-40 90l-4-1h4zm222 14h1v1h-1zm-134 56l-8-2-12 2v-3l9-1h1l1 1h3l7 1 1-1h1l4 2zm-50 10v-1l2 1h-1zm36 2l3-2 1 2h-1zm7 1v-1l3 1h-1-1z"/>
		<path id="Path 7" fill-rule="evenodd" class="s7" d="m351 249l7 5 1-8 4 3 2-3 5-31-6-33-20-40-3-25 34-1h1l7 1h8l1 1h4 4l4 1 10 2h1l3 1h1l10 3h1l3 1 3 1 2 1h1l2 1h1l7 3h1l2 1 5 2v1l-1 11 6 6 8 17 6 4h-2l-2-1h-5l-3-1h-15l-3 1h-5l-1 1h-2l-2 1h-2l-1 1h-2l-1 1h-2l-1 1-3 1-1 1h-1l-1 1h-1l-1 1-4 2-1 1-1 1-2 1-1 1-1 1-1 1-7 7-1 1-1 1-1 1-1 1-1 2-1 1h-1-3l-18 21-6 23 1 39 2-1 3 26 14 32 11 17 18 18 27 16v20l-3 2-10-2-3 3-2-2-2 7h-4l1 2-7 6 3 9-2-1-4-7-2-1v-1l-2-1-1-2-1-1-3-3-1-1-4-2-5-4-2-1 2 1 3 3 1 1h1l6 6 1 1 2 2 1 1 1 1 1 1 1 1 2 4-13-12-3 1h-1l-1-1-1-1-2-1-1-1-3-2-1-1h-1l-1-1-1-1-1-1-3-1h-1l-1-1-1-1-3-1-3-1-3-1h-2l-8-1h-4l-10 2h-1l-1 1-2 1-1 1-1 1-1 1-1 1-2 3-1 1-1 1-1 2-1 1-1 1v1l-1 1v1l-1 1v1l-1 1-1 1v1l-1 1-1 3-1 1-1 4-1 1v1l-1 1-1 2v2l-1 1-2 5-6 4-1 2-2 3-5 4v4l-18 8-32-6-12-7-2 2-6-5-4 1-57-30-22-17v-4l-24-6h-1l-2-5-1-4v-4l-3-25v-19l1-4v-6l1-4v-9l1-2v-3-1l1-4 1-5v-1l1-4v-2l4-8 12 11 9 1v4l9 6 4-47 3-12 9-13h2v3l-1 2-1 2v3l-1 2v2 2l-1 2v3l-1 1v2 2l-1 7v3l-1 3-3-2-4 10 2 21v1 1l-6 12v41h9v-39l17 34 23 22 28 12h33l2 12-4 6v26l9-9 1 9 7-7 6-14 5-25 5-10 12-7 1 27 8-9v-26l3-4 1-1 17-20 13-27 1-14-3-10v-2-2l1-2v-1-6l1-3v-5-1-2l1-6-1-4v-5-1-1-1-1l-1-2v-2zm127-74v-1l6 2h-1-3l-1-1zm6 2v-1l2 1zm5 2v-1l2 1h-1zm5 2l-1-1 2 1zm1 1v-1l2 1h-1zm-103 25l2-3v1 1l-1 1zm-2 3l2-2-1 2zm-1 2l1-2v1 1zm-7 14l1-2v1 1zm-3 9l1-3v1 2zm-1 2l1-2v1 1zm-2 9l1-2v2zm-203 3l1-3v3zm202 2v-4h1v2 2zm177 2v-2l1 2zm-178 6l1-3v2 1zm182 7v-1l1 2h-1zm2 15v-3l1 3zm-183 4l-1-4h1v2zm184 2v-2l1 9h-1zm-183 7l-1-4h1v1 1zm1 4l-1-3h1v2zm182-2h1v1h-1zm-211 5v-1h1l-1 3zm211 6v-7h1l-1 8zm-182-6h1v1h-1zm-30 5v-2h1l-1 3zm32 1l-1-2h1v1zm-33 2v-2h1zm-179 2l-1-3h1zm213 0l-1-3h1v1 1zm-35 1v-1h1l-1 2zm35 0h1v1h-1zm178 2v-2h1zm-391 5v-5h1v4 1zm177-4v-1h1l-1 2zm38 2l-1-2h1v1zm-39 0h1v1h-1zm40 3l-1-2h1v1zm174-1h1v1h-1zm-215 1h1v1h-1zm42 2l-1-2h1zm-216 1v-2h1v2zm173 0h1v1h-1zm43 0h1v1h-1zm-215 3v-1h1v2h-1zm171-1h1v1h-1zm216 0h1v1h-1zm-171 1h1v1h-1zm-46 1h1v1h-1zm48 3l-1-2h1v1zm168-2h1v1h-1zm2 0h1v1h-1zm-387 3v-2h1v2zm168-2h1v1h-1zm49 1h1v1h-1zm-50 2v-1h1l-1 2zm217-1h1v1h-1zm-383 4v-3h1v3zm217-3h1v1h-1zm-52 1h1v1h-1zm54 3l-1-2h1v1zm-55-1h1v1h-1zm218 0h1v1h-1zm1 1l2 1h-1-1zm-382 0h1v1h-1zm218 0h1v1h-1zm-56 1h1v1h-1zm57 1h1v1h-1zm161 0h1v1h-1zm-379 1h1v1h-1zm160 0h1v1h-1zm59 1h1v1h-1zm159 0h1v1h-1zm-158 1h1v1h-1zm-219 1h1v1h-1zm220 1h1v1h-1zm-219 1h1v1h-1zm155 0h1v1h-1zm-1 1h1v1h-1zm66 0h1v1h-1zm-219 1h1v1h-1zm220 0h1v1h-1zm152 1h1v1h-1zm-371 1h1v1h-1zm1 2h1v1h-1zm1 2h1v1h-1zm366 1h1v1h-1zm-365 1h1v1h-1zm143 0h1v1h-1zm-141 3l-1-2 1 1zm140-2h1v1h-1zm-140 2h1v1h-1zm223 1h1v1h-1zm136 1h1v1h-1zm-357 1h1v1h-1zm134 0h1v1h-1zm-1 1h1v1h-1zm-1 1h1v1h-1zm-1 1h1v1h-1zm-2 2h1v1h-1zm223 1v-1h1v2h-1zm-224 0h1v1h-1zm-1 1h1v1h-1zm-1 1h1v1h-1zm-1 1h1v1h-1zm-116 2h1v1h-1zm114 0h1v1h-1zm-113 1h1v1h-1zm112 0h1v1h-1zm113 0h1v1h-1zm1 1h1v1h-1zm-223 2h1v1h-1zm105 0h1v1h-1zm-1 1h1v1h-1zm123 0h1v1h-1zm101 2v-2h1v1zm-227 0h1v1h-1zm-96 1h1v1h-1zm226 0h1v1h-1zm2 1h1v1h-1zm-224 2h1v1h-1zm86 0h1v1h-1zm141 0h1v1h-1zm-226 1h1v1h-1zm83 0h1v1h-1zm-81 1h1v1h-1zm79 0h1v1h-1zm-76 2l-2-1h1zm74-1h1v1h-1zm-74 1h1v1h-1zm72 0h1v1h-1zm156 0h1v1h-1zm72 0h1v1h-1zm-67 2h1v1h-1zm-225 2l-2-1h2zm57 0v-1h2v1h-1zm170 0v-1h1 1v1zm-226 0h1v1h-1zm54 0h1v1h-1zm175 0h1v1h-1zm-226 1h1v1h-1zm48 0h1v1h-1zm183 1l-2-1h2zm-228 1l-1-1h1 2v1zm41-1h1v1h-1zm188 1v-1h3v1h-2zm-226 1v-1h2v1zm35-1h1v1h-1zm195 1v-1h2v1zm-224 0h1v1h-1zm23 0h1v1h-1zm209 1l-2-1h2zm19-1h1v1h-1zm-22 16l4-6 1 5zm14-3v-2l2 1zm-358 2h1v1h-1zm274 18v-1l2 1zm19 14l-2-3 2 1zm0 0l2-1 6 11zm-98 15h1v1h-1zm138 70l3 3 67-51 8-5 1 5 3-3 15-1 18 12v2l-1 2-1 1-1 2-1 1-1 1v1l-1 1-2 3-1 1v1l-1 1-2 2v1l-1 1-2 3h-1l-1 1v1l-2 2-1 1-1 1v1l-1 1-1 1-1 1-1 1-1 1v1l-1 1-1 1-1 1-1 1-2 2-1 1-1 1-1 1-1 1-1 1-2 2-1 1-1 1-1 1-1 1-1 1-3 3h-1l-1 1-1 1-1 1h-1l-1 1-1 1-1 1-3 3h-1l-1 1-3 2-1 1h-1l-1 1-1 1-2 1-1 1h-1l-1 1-1 1v1h-1l-1 1h-1l-1 1-1 1-1 1-3 2-2 1h-2-1l-1 1v1h-1v1l-3 1h-1-3l-1 1 1-1h3v1l-2 1-1 1-4 1-1 1h-1l-1 1h-1l-8 6v1l-1 1v2l-1 1-2 6-1 1-1 1-1 3-1 1v1h-1l-1 1-1 2v1h-1l-1 1v2h-1-1v1l-3 3-1 2-1 1-2 3h-1l-1 1-9 7h-1l-3 1-1 1h-1-1v1h-1-3-1l-24 1h-1-1l-1-1h-8l-12-2h-2-1l-2-1-3-1h-2-1l-1-2 8-1h14 1l4 1h3 6l-6-1-7-1h-4l-5-2h-1l-10-2h-1l-5 2 11 3-8 1-3 2h-9-1-9-1-1-3-1-1l-6-1h-1l-1-1-2-1h-1-1l-1-1-7-2-8-6-4-6-1-1v-1l-1-1v-1l-1-1v-1l-1-1-1-2-2-6-1-2-1-1-2-1h-1l-1-1h-1l-7-3h-2l-1-1h-1l-2-1-2-1h-1l-1-1h-1l-6-3-1-1h-1-1l-4-2-1-1-1-1h-1l-2-1-1-1h-1l-1-1-3-2h-1l-1-1h-1l-1-2h-1l-4-3h-1l-2-1-1-1-2-1v-1l9-8 17-7 17 2h5l3-2 4 1 5 4 5-13 2-2 2 9 1 27 1-8 28 6-9 1 1 21 4 6 3 5 1 1 2 2 1 1h1l5 3h1l1 1h2l2 1h4 14v1l-9 1v3l12-2 8 2 7-1-4-2h9 12l15-1 1-1 8-1 9-7 7-12 1-24-8-2 20-7 5 5v-24l6-8v-7 3zm-2-2l-1-1h2v1zm-34 43l3-1v1zm-11 1h1v1h-1zm-86 2h1v1h-1zm3 0h1v1h-1zm14 1h1v1h-1zm5 1v-1l3 1h-1-1zm37 0l6-1v1h-1zm102-1h1v1h-1zm-128 42h1v1h-1zm4 1v-1h1 5l1 1v1zm7 0v-1h2v1h-1z"/>
		<path id="Path 8" fill-rule="evenodd" class="s8" d="m223 157l8-3 2 3h8l22-8-1 7-5 4 2 6-9 7h36l22 9 3 2-3-2v-5h3l6 5 1 6-3-2 23 26 12 36v1 2 2 4 1l1 1v5 4 6 2 1 5l-1 3v6l-1 1v1h-1l1-32h-5l-2 5-7-2v41h7l-7 1 2 15-2 10 2-1v1 1h-1v1 1l-2 1v1l-1 1v1l-1 1v1 1l-1 1-1 1-1 1-1 1-1 3v1l-1 1v1l-1 1-1 1-1 1-1 1v1l-1 1-1 1-1 1v1h-1l-1 1-1 1-1 1v1l-1 1h-1l-1 1v1h-1-1v1 1h-1l-1 1v1h-1l-1 1-1 1-1 1-1 1h-1l-1 1-1 1-1 1h-1l-1 1-1 1-1 1h-1l-1 1h-1l-1 1h-1l-1 1h-1v1h-1-1l-1 1h-1l-1 1-1 1h-1l-2 1h-2l-1 1h-1l-1 1h-1-1-1l-1 1h-1-1-1l-1 1h-1l-3 1h-1-1-1-1-1l-1 1h-16l-1-1h-1-1-1-1-2l-1-1h-2l-1-1h-2l-2-1h-1-1l-1-1h-1l-1-1h-2l-2-1-1-1h-1v-1h-1-1l-1-1-1-1h-1l-1-1-1-1h-1l-1-1h-1l-1-1v-1l-1-1h-1l-1-1h-1l-1-1v-1l1-2-2-1-1-1h-1-1-1l-1-1-1-1v-1l-1-1-1-1-1-1-1-1v-1l-1-1-1-1v-1l-1-1-1-1v-1l-1-1-1-1v-1l-1-1v-1l-1-1v-1l-1-1v-1l-1-1v-1l-1-1v-1l-1-2v-1l-1-1v-1l-1-1v-1-1l-1-1v-3l-1-1v-2l-1-1v-1-2l-1-1v-1-2-1-1l-1-1v-4l-1-3v-3-1l-1-5v-12l1-2v-3-3l1-7v-2l1-2v-1-3l1-2v-2l1-2v-2l1-3v-1l1-3 1-3 6-16-7 5v-7l1-1 13-21v-5h-4v-13-1l1-1 1-1 1-1 1-1 1-1 1-1 1-1 1-1 1-1 5-4 1-1 13-11 1-1 3-2 1-1 4-2 1-1 1-1zm223 16l3-1h15l3 1h5l2 1h2l1 1h1 1l1 1h3l1 1h2l1 1h1l1 1h1l1 1h1 1l1 1 1 1h1l1 1h1l1 1h1l1 1 1 1h1l1 1h1l1 1 1 1 1 1h1l1 1 1 1 1 1h1l1 1 1 1 1 1 1 1 1 1 1 1 1 1 1 1 1 1 1 1 1 1 1 1 1 1 1 1 1 1v1l1 1 1 1 1 1v1l1 1 1 1 1 1v1l1 1 1 1 1 1v1l1 1v1l1 1 1 1v1l1 1v1l1 1 1 1v1l1 1v1l1 1v1l1 2 1 1v1 1l1 1v1l1 2 1 2v1l1 1v1 1l1 1v2l1 2 1 1v3 1l1 1v1 1l1 3v1l1 3v2 1l1 2v3 3l1 6v7 1 1 1 1 2 7l-1 5v2 4l-1 1v1 3l-1 2v1l-1 2v1 1l-1 1v1 2l-1 1v1 1l-1 1v1h-1l-2-1v3l-2 3-1 1-1 1-2 2h4v1 2l-1 1h-1v1 1l-1 1v1l-1 1-1 2h-1v-7l-17 19 1 5v2l-1 1h-1-1l-1 1v1l-2 1-1 1-1 1h-1-1l-1 1-1 1h-1l-1 1-3 1-1 1h-1l-1 1h-1l-1 1h-2l-1 1h-3l-2 1h-1l-2 1h-4-1l-1 1h-8-2-2-1-1-1-1l-2-1h-2-2l-1-1h-1-2l-1-1h-3-1v-1h-2-1l-1-1h-1l-1-1h-1l-1-1h-1-1-1v-1l-2-1h-1-1l-1-1h-1l-2-1-1-1-1-1h-1l-1-1-1-1-1-1h-1-1l-1-1-1-1-1-1h-1l-1-1-1-1-1-1-1-1h-1l-1-1v-1l-1-1h-1l-1-1-1-1-1-1-2-2-2-2-1-1-1-1-1-1v-1l-1-1-2-2-1-1-1-2-1-1-3-4v-1l-1-1-1-1v-1l-1-1v-1l-1-1-1-2-1-1v-1l-1-1v-1l-1-1v-1l-1-1v-1l-1-1v-1-1l-1-1-1-2v-1l-1-1v-2l-1-1v-1l-1-2v-1-1l-1-1v-1l-1-1v-1-1-1l-1-2v-1-3l-1-1-1-2v-1-1-2l-1-3v-1-1l-1-7v-2-2-1-16-1-2-1l1-7v-2l1-3v-2-1l1-1v-1-1l1-3v-1l1-1v-2l1-2v-1l1-1v-1l1-2v-1l1-1v-1-1l1-1v-1l1-1v-1l1-1v-1l1-1v-1l1-1 1-1v-1l1-1 1-2 1-1 1-1v-1l1-1 1-1 1-2 1-1 1-1 1-1 1-1 7-7 1-1 1-1 1-1 2-1 1-1 1-1 4-2 1-1h1l1-1h1l1-1 3-1 1-1h2l1-1h2l1-1h2l2-1h2l1-1zm-98 123v-2h1v2zm0 5v-4 1 2zm-3 8l2-6v1 2l-1 1v2zm0 3v-3 1 1zm-1 3h-2l2-1zm-2 4l1-2v1 1zm-3 9l-2-1 3-3v1 1l-1 1zm-7 11h1v1h-1zm217 2l2-1v1 1l-1 1v2l-1 1-1 1v1h-1l-2-2 1-1 1-1zm-220 3h1v1h-1zm-1 1h1v1h-1zm210 18l2-3v1 1l-1 1zm-4 5l1-2v1 1zm-3 3l3-3v1l-1 1-1 1zm-336 1v-1h1l1 1 2 1-1 2h-1l-1-1-1-1zm333 2l2-2v1l-1 1zm-3 2l2-1v1h-1zm-109 192l2 1-1-2h1 3l4 1v4l1 11-7 13-26 15-5 3h-12l-9-1h-2-1-5l-25-4-9-7-8-16v-15h4 1 2 1 1 1 4 2 1l2 1h1 1 1l4 1h1v10l9 5v8l8 1 1-14 9-2v-8l14-1h1 1 1l3-1h4 1 1l3-1h2 1l1-1h2 1 1 1v-1h5 1zm54 25l9-5v27 2 6 1 2 1 2l-5 2 1 3h4v1 1 2 1h-9zm-18 35l9-13 1 16-10 3zm-180 5v-16l3 2 1 1 5 11v3l-3-2-2 2zm-16-2h1v1h-1zm0 6h1v1h-1zm-2 2v-1l2 2 2-1h1 4v6l-9-2zm18 0h1v1h-1zm0 7v-5l5 1-1 2-3-1 1 4zm168-4l3-1v3l-3-1zm-1 1h1v1h-1zm-2 2v-1h1 1v2h-1zm0 1l-2-1h1 1z"/>
		<path id="Path 9" fill-rule="evenodd" class="s0" d="m527 539h1v1h-1zm-14 13h1v1h-1zm-235 39h1v1h-1zm174 7h1v1h-1zm-166 4h1v1h-1zm28 25h1v1h-1zm116 0h1v1h-1zm-175 1h1v1h-1zm1 1h1v1h-1zm-1 1h1v1h-1zm3 0h1v1h-1zm154 3h1v1h-1zm6 2h1v1h-1zm-161 1h1v1h-1zm153 0h1v1h-1zm9 0h1v1h-1zm-11 3h1v1h-1zm-69 11h1v1h-1zm2 1h1v1h-1zm54 1h1v1h-1zm-6 6h1v1h-1zm-12 5h1v1h-1zm3 1h-2 1z"/>
		<path id="Path 10" fill-rule="evenodd" class="s1" d="m138 464h1v1h-1zm443 0h1v1h-1zm-436 14h1v1h-1zm429 0h1v1h-1zm-1 2h1v1h-1zm-425 3h1v1h-1zm1 2h1v1h-1zm421 0h1v1h-1zm-3 5h1v1h-1zm-2 3h1v1h-1zm-1 1h1v1h-1zm-1 2h1v1h-1zm-3 4h1v1h-1zm-1 2h1v1h-1zm-3 4h1v1h-1zm-390 4h1v1h-1zm1 1h1v1h-1zm3 4h1v1h-1zm1 1h1v1h-1zm1 1h1v1h-1zm375 0h1v1h-1zm-374 1h1v1h-1zm3 4h1v1h-1zm1 1h1v1h-1zm365 0h1v1h-1zm-364 1h1v1h-1zm363 0h1v1h-1zm-362 1h1v1h-1zm361 0h1v1h-1zm-360 1h1v1h-1zm359 0h1v1h-1zm-356 3h1v1h-1zm25 23h1v1h-1zm15 11h1v1h-1zm267 4h1v1h-1zm-251 6h1v1h-1zm2 1h1v1h-1zm5 3h1v1h-1zm227 0h1v1h-1zm-205 10h1v1h-1zm181 16h1v1h-1zm30 23h1v1h-1zm8 6h1v1h-1zm-3 2h1v1h-1zm3 0h1v1h-1zm-8 1h1v1h-1zm-52 2h1v1h-1zm3 0h1v1h-1zm57 0h1v1h-1zm-58 1h1v1h-1zm-10 7l6-6v5zm60-4h1v1h-1zm-151 2h1v1h-1zm98 1h1v1h-1zm3 0h1v1h-1zm-92 1h1v1h-1zm82 0v2h-3zm6 0h1v1h-1zm-89 1h1v1h-1zm85 1h1v1h-1zm-80 1h1v1h-1zm3 0h1v1h-1zm88 2h1v1h-1zm-4 1h1v1h-1zm-23 5h1v1h-1zm-5 2h1v1h-1zm2 0h1v1h-1zm-4 1h1v1h-1zm-9 3h1v1h-1zm-16 1h1v1h-1zm6 0h1v1h-1z"/>
		<path id="Path 11" fill-rule="evenodd" class="s2" d="m433 175h1v1h-1zm-6 2h1v1h-1zm-4 2h1v1h-1zm-2 1h1v1h-1zm-2 1h1v1h-1zm-6 4h1v1h-1zm-5 4h1v1h-1zm-172 34v-9l9-10v-7l9-5v14h9v25l-3 11-6 4 2-5-2-23-9 2-1-4zm161-23h1v1h-1zm-10 15h1v1h-1zm-12 31h1v1h-1zm-139 41l3-5h6l2-22 7-13v14l2 3 4-2v1 1l-1 1-1 1-2 2-1 1h-1l-1 1v1l-1 1-1 1v1 2 1l-1 2-1 1v1l-1 1 1 6 1 1v2 2l1 1 1 1v1 1l1 1v1l1 1 1 1h1l1 1v1 1l-3-2-2 40-7-7v-17l-9-4zm114-39h1v1h-1zm1 7h1v1h-1zm-86 5l6-3v1 1h-2-1l-1 1h-1zm7-3h1v1h-1zm3 0h1v1h-1zm9 1h1v1h-1zm2 1v-1l2 1zm2 0h1v1h-1zm157 0h1v1h-1zm-183 3l1-2v1 1zm181-2h1v1h-1zm-183 1h1v1h-1zm31 0h1v1h-1zm148 1h1v1h-1zm-144 1h1v1h-1zm138 4l1-2v1zm-146 0v-1h2zm-4 1v-1h1v1zm2 0v-1h2zm12 0l1-1v1 1zm2 0h1v1h-1zm-18 1h1v1h-1zm-1 1h1v1h-1zm-3 4v-1h1 1l-1 1zm150 0h1v1h-1zm-150 2v-1h1l-1 2zm200-1h1v1h-1zm-201 3v-1h1l-1 3v-1zm200-1h1v1h-1zm2 1h1v1h-1zm-30 1h1v1h-1zm-23 2h1v1h-1zm-176 1h1v1h-1zm27 1v-1l2 5h-1v-1l-1-1v-1zm203-1h1v1h-1zm0 2h1v1h-1zm-26 1h1v1h-1zm-204 1h1v1h-1zm55 2v-2h1v2zm47-2h1v1h-1zm-73 2v-1l1 2h-1zm179-1h1v1h-1zm-155 1h1v1h-1zm177 0h1v1h-1zm-199 2h1v1h-1zm69 1h1v1h-1zm-67 1h1v1h-1zm16 0h1v1h-1zm5 0h1v1h-1zm-18 2h2v1h-1zm10-1h1v1h-1zm-7 1h1v1h-1zm6 0h1v1h-1zm8 0h1v1h-1zm124 0h1v1h-1zm-125 2h1v1h-1zm-1 2h1v1h-1zm-1 2h1v1h-1zm-1 1h1v1h-1zm80 0h1v1h-1zm-119 5l-2-2h1l1 1zm34 0h1v1h-1zm-26 4l-6-3h1l2 1h1l1 1h1zm24-3h1v1h-1zm177 1v-1h2zm-180 1v-1h1 1zm-2 0h1v1h-1zm-16 2l-2-1h1 1zm110 0h1v1h-1zm79 0h1v1h-1zm-294 2h1v1h-1zm216 0h1v1h-1zm-38 3h1v1h-1zm-175 2h1v1h-1zm0 2h1v1h-1zm1 4h1v1h-1zm-1 1h1v1h-1zm171 1h1v1h-1zm-168 5h1v1h-1zm1 4h1v1h-1zm-1 2h1v1h-1zm6 10h1v1h-1zm1 2h1v1h-1zm148 0h1v1h-1zm-147 2h1v1h-1zm147 0h1v1h-1zm-4 3h1v1h-1zm-1 2h1v1h-1zm-1 1h1v1h-1zm-137 1h1v1h-1zm136 0h1v1h-1zm-4 4h1v1h-1zm-3 3h1v1h-1zm-4 4h1v1h-1zm109 0h1v1h-1zm1 2h1v1h-1zm-113 3h1v1h-1zm-105 3h1v1h-1zm226 0h1v1h-1zm-224 1h1v1h-1zm94 1h1v1h-1zm136 2h1v1h-1zm-225 1h1v1h-1zm311 0h1v1h-1zm-231 1h1v1h-1zm2 0h1v1h-1zm-79 1h1v1h-1zm304 0h1v1h-1zm-229 1h1v1h-1zm-9 4h1v1h-1zm179 1h1v1h-1zm-189 2h1v1h-1zm193 0h1v1h-1zm-203 2h1v1h-1zm-17 5h1v1h-1zm2 0h1v1h-1zm3 0h1v1h-1zm19 50l4 2-4 6zm191 80h1v1h-1zm1 3h1v1h-1zm-2 1h1v1h-1zm-44 36h1v1h-1zm11 0h1v1h-1zm-186 1h1v1h-1zm134 2h1v1h-1zm55 9h1v1h-1zm-4 8h1v1h-1zm-103 8h1v1h-1zm87 4h1v1h-1zm-84 1h1v1h-1zm1 1h1v1h-1zm76 1h1v1h-1zm-74 1h1v1h-1zm1 1h1v1h-1zm19 0h1v1h-1zm46 1h1v1h-1zm-3 1h1v1h-1zm-56 1h1v1h-1zm45 0h1v1h-1zm29 3h1v1h-1zm-128 7h1v1h-1zm-20 17h1v1h-1zm181 8h1v1h-1zm1 1h1v1h-1zm-24 4h1v1h-1zm-3 2h1v1h-1zm-20 4h1v1h-1zm3 0h1v1h-1zm-41 1h1v1h-1zm22 0h1v1h-1zm5 0h1v1h-1zm-4 1h1v1h-1zm-20 1h1v1h-1zm4 0h1v1h-1zm29 0h1v1h-1zm-31 1h1v1h-1zm39 0h1v1h-1z"/>
		<path id="Path 12" class="s3" d="m414 184h1v1h-1zm-100 1h1v1h-1zm96 2h1v1h-1zm-174 93l-4 19-5-1-1 3-7-11-2 9-7-30 1-11 6-14 2 2 17-20zm270-38l7 9 1 9 2-4 3 20-3 17-2-15-2 13-6 10zm-49 17h1v1h-1zm-194 1h1v1h-1zm178 0h1v1h-1zm-149 6h1v1h-1zm-124 4h1v1h-1zm182 6h1v1h-1zm25 2h1v1h-1zm104 0h1v1h-1zm-230 2h1v1h-1zm231 6h1v1h-1zm-21 1h1v1h-1zm16 14h1v1h-1zm-1 1h1v1h-1zm-10 8h1v1h-1zm-18 2h1v1h-1zm110 21h1v1h-1zm-10 11h1v1h-1zm5 0h1v1h-1zm-6 1h1v1h-1zm-3 4h1v1h-1zm2 3h1v1h-1zm-234 14h1v1h-1zm-105 3h1v1h-1zm101 0h1v1h-1zm-111 1h1v1h-1zm11 0h1v1h-1zm-10 1h1v1h-1zm11 0h1v1h-1zm79 2h1v1h-1zm145 1h1v1h-1zm90 5h1v1h-1zm-308 6h1v1h-1zm43 7h1v1h-1zm213 0h1v1h-1zm4 2h1v1h-1zm-89 18h-3l1-2 3 2zm1 0h1v1h-1zm-58 4h1v1h-1zm225 94h1v1h-1zm-3 4h1v1h-1zm-1 1h1v1h-1zm-2 3h1v1h-1zm-1 1h1v1h-1zm-1 1h1v1h-1zm-1 1h1v1h-1zm-7 8h1v1h-1zm-2 2h1v1h-1zm-1 1h1v1h-1zm-1 1h1v1h-1zm-3 3h1v1h-1zm-1 1h1v1h-1zm-2 2h1v1h-1zm-1 1h1v1h-1zm-5 4h1v1h-1zm-1 1h1v1h-1zm-1 1h1v1h-1zm-2 1h1v1h-1zm-1 1h1v1h-1zm-1 1h1v1h-1zm-57 4h1v1h-1zm52 0h1v1h-1zm-4 3h1v1h-1zm-2 1h1v1h-1zm-11 8h1v1h-1zm-86 3h1v1h-1zm76 2h1v1h-1zm-1 1h1v1h-1zm-156 1h1v1h-1zm154 0h1v1h-1zm-7 3h1v1h-1zm-1 1h1v1h-1zm-3 3h1v1h-1zm-13 12h1v1h-1zm-47 6h1v1h-1zm-77 3h1v1h-1zm61 3h1v1h-1zm-6 2h1v1h-1zm56 6h1v1h-1zm-89 1h1v1h-1zm88 0h1v1h-1zm-4 6h1v1h-1zm-4 4h1v1h-1zm-88 1h1v1h-1zm4 0h1v1h-1zm-32 6h1v1h-1zm8 0h1v1h-1zm3 1h1v1h-1zm89 1h1v1h-1zm2 0h1v1h-1zm-48 2h1v1h-1zm79 0h1v1h-1zm-69 1h1v1h-1zm68 0h1v1h-1zm-5 1h1v1h-1zm-9 1h1v1h-1zm2 0h1v1h-1zm3 0h1v1h-1zm0 2h1v1h-1zm-28 4h1v1h-1z"/>
		<path id="Path 13" fill-rule="evenodd" class="s4" d="m440 173h1v1h-1zm39 2h1v1h-1zm-49 1h1v1h-1zm68 7h1v1h-1zm5 3h1v1h-1zm2 1h1v1h-1zm-96 1h1v1h-1zm97 0h1v1h-1zm1 1h1v1h-1zm2 1h1v1h-1zm6 5h1v1h-1zm1 1h1v1h-1zm-116 1h1v1h-1zm117 0h1v1h-1zm-118 1h1v1h-1zm119 0h1v1h-1zm-120 1h1v1h-1zm121 0h1v1h-1zm1 1h1v1h-1zm1 1h1v1h-1zm1 1h1v1h-1zm-127 1h1v1h-1zm128 0h1v1h-1zm1 1h1v1h-1zm1 1h1v1h-1zm-132 1h1v1h-1zm133 0h1v1h-1zm3 4h1v1h-1zm1 1h1v1h-1zm-222 3l12 3 6 6v110h-9v-62l-9-7zm225 1h1v1h-1zm2 3h1v1h-1zm1 1h1v1h-1zm1 2h1v1h-1zm2 3h1v1h-1zm1 2h1v1h-1zm2 3h1v1h-1zm-369 1h1v1h-1zm370 1h1v1h-1zm1 2h1v1h-1zm2 4h1v1h-1zm-273 21v-1h2v1zm3 0v-1h6l2 1v1h-3zm-5 1v-1h1 1v1zm14-1h1v1h-1zm165 1v-1h4v1h1 2v1l-4 2v-1l-1-1zm-163 1l-1-1h2v1zm159 0v-1h3 1v1h-2zm-182 1v-1h1 1v1h-1zm25-1h1v1h-1zm152 1l1-1h1v1 1h-3zm-178 0h1v1h-1zm27 0h1v1h-1zm2 1v-1l2 2h-1-1zm-31 1v-1h1 1l-1 1zm177-1h1v1h-1zm12 2l1-2h2l-3 3zm-190-1h1v1h-1zm34 0h1v1h-1zm141 2l2-2v1l-1 1zm-142 1l2-2h1l1 1 1 1v1l-1 1h-1l-1-1h-2zm-4 0v-1h4v1h-1zm145-1h1v1h-1zm15 2v-2h1zm-164 0v-1h2v1zm-1 0h1v1h-1zm163 6l1-6h1zm-149-5h1v1h-1zm-44 1h1v1h-1zm176 0h1v1h-1zm-177 1h1v1h-1zm25 2l2-2v1l-1 2h-1zm151 0l1-2v1zm-177 0h1v1h-1zm-1 2v-1h1v1 3h-1v-1zm196 4v-4l1 4zm30-4h1v1h-1zm-201 1h1v1h-1zm151 0h1v1h-1zm49 2l1-2v1 1zm-226 2l1-2v1 2h-1zm228-2h1v1h-1zm-203 1h1v1h-1zm173 0h1v1h-1zm27 2l1-2v1 1zm4 1v-2h1v3h-1zm-204 2v-3h1v2 1zm149-2l2-1v1h-1zm-175 0h1v1h-1zm200 0h1v1h-1zm-24 1h1v1h-1zm25 0h1v1h-1zm23 0h1v1h-1zm-224 4v-3h1v3zm202-3h1v1h-1zm21 0h1v1h-1zm7 0h1v1h-1zm-27 1h1v1h-1zm19 0h1v1h-1zm-167 1h1v1h-1zm166 0h1v1h-1zm9 0h1v1h-1zm-23 2l-2-1h2zm12 0v-1h2zm-219 0h1v1h-1zm28 0h1v1h-1zm181 0h1v1h-1zm7 1l2-1v1h-1zm14-1h1v1h-1zm-176 2v-1h1 1l-1 1zm123 2l-1-3h1zm-125-2h1v1h-1zm178 3v-3h1zm-227 0v-2h1l-1 3zm27-2h1v1h-1zm21 0h1v1h-1zm76 0h1v1h-1zm-126 3v-2h1v1 1zm31-1l-1-1h1l1 1zm16 2l1-2v1zm-46 0v-1h1v2zm32-1h1v1h-1zm19 1v-1h1 1l-1 1zm-15 0h1v1h-1zm191 2v-2h1zm-226 0h1v1h-1zm176 2l-1-2h1v1zm-51-1h1v1h-1zm-124 1h1v1h-1zm175 0h1v1h-1zm-174 1h1v1h-1zm28 10l-2-1 7-9 3 1-1 7-4 2zm17-10h1v1h-1zm177 0h1v1h-1zm-1 1h1v1h-1zm-218 3h1v1h-1zm39 0h1v1h-1zm177 0h1v1h-1zm-1 1h1v1h-1zm-213 2v-1h1 1l1 1v1h-1-1zm34 0v-1h1 1l-1 1zm178-1h1v1h-1zm-179 1h1v1h-1zm54 0h1v1h-1zm90 1l-2-1h1 1zm34-1h1v1h-1zm-206 2l-2-1h1 1zm26-1h1v1h-1zm146 0h1v1h-1zm-171 1h1v1h-1zm174 1l-2-1h1 1zm26 0l1-1v1l-1 1zm-198 1v-1h2v1h-1zm6 0h7v1h-7zm12-1h1v1h-1zm95 0h1v1h-1zm61 1l-2-1h1 1zm-171 1v-1h2v1zm12 0v-1h3zm161 0l-2-1h2zm20-1h1v1h-1zm-17 2l-2-1h2zm12 0h1v1h-1zm99 6h1v1h-1zm-174 1h1v1h-1zm1 3h1v1h-1zm2 4h1v1h-1zm-216 2h1v1h-1zm217 1h1v1h-1zm167 1h1v1h-1zm-166 1h1v1h-1zm-53 1h1v1h-1zm54 1h1v1h-1zm164 1h1v1h-1zm-163 1h1v1h-1zm1 2h1v1h-1zm161 0h1v1h-1zm-379 1h1v1h-1zm159 0h1v1h-1zm-1 1h1v1h-1zm-157 1h1v1h-1zm219 0h1v1h-1zm157 2h1v1h-1zm-221 1h1v1h-1zm-1 1h1v1h-1zm67 0h1v1h-1zm-219 1h1v1h-1zm220 0h1v1h-1zm152 1h1v1h-1zm-148 5h1v1h-1zm-76 1h1v1h-1zm-144 1h1v1h-1zm143 0h1v1h-1zm79 1h1v1h-1zm-220 2h1v1h-1zm223 1h1v1h-1zm-221 2h1v1h-1zm222 0h1v1h-1zm-89 1h1v1h-1zm90 0h1v1h-1zm-91 1h1v1h-1zm92 0h1v1h-1zm-222 1h1v1h-1zm2 3h1v1h-1zm1 1h1v1h-1zm224 0h1v1h-1zm-223 1h1v1h-1zm224 0h1v1h-1zm1 1h1v1h-1zm118 1h1v1h-1zm-227 2h1v1h-1zm-1 1h1v1h-1zm115 0h1v1h-1zm-116 1h1v1h-1zm117 0h1v1h-1zm1 1h1v1h-1zm-121 1h1v1h-1zm122 0h1v1h-1zm-123 1h1v1h-1zm125 0h1v1h-1zm-128 2h1v1h-1zm133 1h1v1h-1zm1 1h1v1h-1zm3 2h1v1h-1zm-226 1h1v1h-1zm305 2h1v1h-1zm-2 1h1v1h-1zm-296 1h1v1h-1zm232 1h1v1h-1zm60 0h1v1h-1zm-58 1h1v1h-1zm56 0h1v1h-1zm-283 1h1v1h-1zm229 0h1v1h-1zm-222 2h1v1h-1zm3 1h1v1h-1zm231 0h1v1h-1zm-224 1h1v1h-1zm232 0h1v1h-1zm15 0h1v1h-1zm-254 3h1v1h-1zm162 22h1v1h-1zm8 7h1v1h-1zm2 0h1v1h-1zm3 4h1v1h-1zm49 110h1v1h-1zm0 7h1v1h-1zm3 16l1-5v5zm-23-1h3v4zm-29 7h1v1h-1zm-5 1h1v1h-1zm-79 3h1v1h-1zm11 2h1v1h-1zm58 35h1v1h-1zm-6 2h1v1h-1zm126 14h1v1h-1zm2 0h1v1h-1zm-8 4h1v1h-1zm-21 3h1v1h-1zm2 2h1v1h-1zm-228 1h1v1h-1zm218 1h1v1h-1zm2 1h1v1h-1zm-150 16h1v1h-1zm18 0h1v1h-1zm-16 1h1v1h-1zm19 1h1v1h-1z"/>
		<path id="Path 14" fill-rule="evenodd" class="s5" d="m449 258h1v1h-1zm5 0h1v1h-1zm-186 2l1-1h17l1 1 2 1 1 1h1l1 1h1l1 1-1 1h-4l-4 1-1 1h-1l-6 6v1l-1 1v1l-1 2v5l1 1v1l1 1v2l6 6h2l1 1h9l1-1h1l1-1h1l2-2 1 2v2l-1 1v1l-2 2v1l-5 5h-1l-2 2h-2l1-7-3-1-7 9 2 1v1h-12l-1-1h-2l-1-1h-1l-1-1h-1l-2-2h-1l-5-5v-1l-2-2v-1l-1-1v-2l1-3h-1v2h-1v-1l-1-4v-4l1-3v-2l1-1v-3l1-1v-1l2-2v-1l4-4h1l3-3h1l1-1h1zm176 1l4-1h4l1 1-2 1-1 2-1 1-1 2-1 6v5l1 1v1l2 2v1l3 3h1l2 1 1 1h10l1-1 2-1h1l3-3v-1l2-2v-1l1-1v-1h1v2l1 2v11l-1 1v3l-2 2v1l-1 1v1l-5 5-2 1-1 1h-1l-2 2h-3l-1 1h-1l-2 1h-9l-2-1h-2l-1-1-2-1h-1l-1-1h-1l-2-2h-1l-5-5-1-2v-1l-1-1v-1l-1-1v-1l-1-1v-15l1-2 1-1v-1l1-2 2-2v-1l3-3h1l3-3h1l1-1h3zm-167 13h1v1h-1zm147 7h1v1h-1zm-120 3h1v1h-1zm-25 5h1v1h-1zm6 20l4-2v1h-1l-1 1zm272 17h1v1h-1zm-8 21h1v1h-1zm3 2h1v1h-1zm-4 1h1v1h-1zm3 0h1v1h-1zm-6 5h1v1h-1zm-1 2h1v1h-1zm-2 12h1v1h-1zm-1 2h1v1h-1zm-9 2l1 5h-5zm-316 28h1v1h-1zm124 14h1v1h-1zm157 146h1v1h-1zm-38 2h1v1h-1zm-114 9h1v1h-1zm-100 4h1v1h-1zm76 52h1v1h-1zm37 2h1v1h-1zm4 1h1v1h-1zm9 1h1v1h-1z"/>
		<path id="Path 15" fill-rule="evenodd" class="s6" d="m390 203h1v1h-1zm-154 20l8-7 1 4 9-2 2 23-2 5v1l-7 13-2 22h-6l-3 5v-7-54zm35 34h1v1h-1zm2 2v-1h2 1l5 1zm-5 0h1v1h-1zm182 1v-1l2 1zm-184 1v-1h1 1zm23 0l-2-1h1 1zm155 0v-1h1 1 2zm-180 0h1v1h-1zm25 0h1v1h-1zm154 0h1v1h-1zm8 1l2-1v1zm-160 0h1v1h-1zm-30 1h1v1h-1zm32 0h1v1h-1zm144 0h1v1h-1zm-177 1h1v1h-1zm33 1l1-1h1l-2 2zm-8 1l4-1v1h-2zm150-1h1v1h-1zm13 2l1-2v2zm-194 3h1v1h-1zm176 0h1v1h-1zm-178 3h1v1h-1zm23 5l1-2v1 1zm202-2h1v1h-1zm-226 1h1v1h-1zm196 1h1v1h-1zm29 0h1v1h-1zm-201 1h1v1h-1zm204 2l-1-2h1zm-229 0v-1h1l-1 3v-1zm198-1h1v1h-1zm27 0h1v1h-1zm-200 3h1v1h-1zm150 5v-5h1v5zm25-5h1v1h-1zm23 0h1v1h-1zm-22 1h1v1h-1zm21 0h1v1h-1zm-20 1h1v1h-1zm19 0h1v1h-1zm-15 2v-1l1 1v1zm23-1h1v1h-1zm-229 2v-1l1 4h-1v-2zm217-1h1v1h-1zm-190 1h1v1h-1zm189 0h-8 1 1 5zm-188 1h1v1h-1zm23 1l1-1h1 1v2l-1 1v1h-1l-1-2zm-1 1h1v1h-1zm-49 1h1v1h-1zm30 0h1v1h-1zm2 0h1v1h-1zm16 0h1v1h-1zm-17 1h1v1h-1zm13 1h1v1h-1zm173 13l2-1v1zm-179 0h1v1h-1zm177 1h1v1h-1zm-184 2v-1h3v1zm159 0v-1l2 1zm-169 0h1v1h-1zm8 1v-1h2v1zm181 0v-1h2v1zm-15 1v-1l2 1h-1zm11 0l2-1v1h-1zm-296 6h1v1h-1zm159 51h1v1h-1zm-29 13h1v1h-1zm151 5h1v1h-1zm-159 1h1v1h-1zm-15 5h1v1h-1zm208 2h-3 1zm-250 9h1v1h-1zm109 3h1v1h-1zm-214 1h1v1h-1zm339 2h1v1h-1zm-120 1h1v1h-1zm44 1h1v1h-1zm-47 1h1v1h-1zm4 0h1v1h-1zm34 0h1v1h-1zm-39 1h1v1h-1zm7 0h1v1h-1zm34 0h1v1h-1zm-36 1h1v1h-1zm-7 1h1v1h-1zm3 0h1v1h-1zm3 0h1v1h-1zm43 2h1v1h-1zm2 1h1v1h-1zm-54 1h1v1h-1zm-1 1h1v1h-1zm59 1h1v1h-1zm11 0h1v1h-1zm-72 2h1v1h-1zm64 0h1v1h-1zm-65 1h1v1h-1zm66 0h1v1h-1zm-67 2h1v1h-1zm-1 2h1v1h-1zm-2 3h1v1h-1zm-1 2h1v1h-1zm-2 4h1v1h-1zm-2 5h1v1h-1zm-1 2h1v1h-1zm-2 5h1v1h-1zm-7 4h1v1h-1zm-1 3h1v1h-1zm-1 2h1v1h-1zm-1 2h1v1h-1zm10 2h1v1h-1zm8 0h1v1h-1zm-12 2h1v1h-1zm0 2h1v1h-1zm-149 36h1v1h-1zm181 2h1v1h-1zm-1 1h1v1h-1zm29 1h1v1h-1zm-36 1h1v1h-1zm49 1h1v1h-1zm-98 29h1v1h-1zm-23 10h1v1h-1zm6 0h1v1h-1zm-32 4h1v1h-1zm16 28h1v1h-1zm213 0h1v1h-1zm-10 8h1v1h-1zm-154 10h4l2 8zm149 1h1v1h-1zm-163 5h1v1h-1zm159 1h1v1h-1zm-158 1h1v1h-1zm20 1h1v1h-1zm-19 1h1v1h-1zm20 0h1v1h-1zm1 1h1v1h-1zm133 0h1v1h-1zm-153 1h1v1h-1zm22 0h1v1h-1zm-2 1h1v1h-1zm3 0h3v3zm8 4h1v1h-1zm21 3h1v1h-1zm12 2h1v1h-1zm11 2h1v1h-1zm-55 3h1v1h-1zm7 3l6 1h-1-1l-1-1zm7 0h1v1h-1zm46 4l-6-1 12 2h-5zm14 1h1v1h-1zm2 0h1v1h-1z"/>
		<path id="Path 16" class="s7" d="m483 173h4l1 3zm4 4h1v1h-1zm4 2h1v1h-1zm6 3h1v1h-1zm4 2h1v1h-1zm1 1h1v1h-1zm9 6h1v1h-1zm1 1h1v1h-1zm1 1h1v1h-1zm1 1h1v1h-1zm13 13h1v1h-1zm1 1h1v1h-1zm-140 4h1v1h-1zm143 0h1v1h-1zm-145 4h1v1h-1zm148 0h1v1h-1zm-149 2h1v1h-1zm-1 2h1v1h-1zm154 2h1v1h-1zm-155 1h1v1h-1zm-2 4h1v1h-1zm160 0h1v1h-1zm-161 3h1v1h-1zm165 4h1v1h-1zm2 5h1v1h-1zm-170 1h1v1h-1zm171 1h1v1h-1zm1 2h1v1h-1zm1 3h1v1h-1zm1 3h1v1h-1zm2 6h1v1h-1zm1 4h1v1h-1zm1 3h1v1h-1zm-302 9h1v1h-1zm304 1h1v1h-1zm-83 9h1v1h-1zm-7 5h1v1h-1zm11 7h1v1h-1zm-2 5h1v1h-1zm81 32h1v1h-1zm-8 15h1v1h-1zm-221 2h1v1h-1zm70 2h1v1h-1zm-73 2h1v1h-1zm221 0h1v1h-1zm-2 3h1v1h-1zm-1 2h1v1h-1zm-358 5h1v1h-1zm354 1h1v1h-1zm-352 2h1v1h-1zm127 0h1v1h-1zm-123 5h1v1h-1zm1 1h1v1h-1zm3 3h1v1h-1zm1 1h1v1h-1zm107 0h1v1h-1zm-105 2h1v1h-1zm101 1h1v1h-1zm128 1h1v1h-1zm97 0h1v1h-1zm-321 2h1v1h-1zm92 0h1v1h-1zm-90 1h1v1h-1zm88 0h1v1h-1zm142 2h1v1h-1zm82 0h1v1h-1zm-78 2h1v1h-1zm-157 2h1v1h-1zm221 3h1v1h-1zm-3 1h1v1h-1zm-40 19l1-2v2zm-1 0h1v1h-1zm-61 19h1v1h-1zm13 8h1v1h-1zm11 14h1v1h-1zm-118 14h1v1h-1zm231 6h1v1h-1zm3 2h1v1h-1zm-2 1h1v1h-1zm34 8h1v1h-1zm-117 42h1v1h-1zm-177 22h1v1h-1zm138 21h1v1h-1zm-88 3h1v1h-1zm69 0h1v1h-1z"/>
		<path id="Path 17" fill-rule="evenodd" class="s8" d="m323 155h3v20l-3-1 2 5-6-2-6-9 1-10 3-1 2 3-1-2zm-9 18h1v1h-1zm-2 3h1v1h-1zm2 0h1v1h-1zm-54 86h1v1h-1zm16 14h1v1h-1zm-27 12l-1-6h1zm0 0h1v1h-1zm1 5h1v1h-1zm2 4h1v1h-1zm1 2h1v1h-1zm1 1h1v1h-1zm4 4h1v1h-1zm83 15h1v1h-1zm-1 3h1v1h-1zm200 37h1v1h-1zm-3 4h1v1h-1zm-2 2h1v1h-1zm-5 6h1v1h-1zm-3 3h1v1h-1zm-252 260h1v1h-1zm-2 4h1v1h-1zm1 1h1v1h-1zm4 2h1v1h-1zm160 1h1v1h-1zm-162 2h1v1h-1zm164 1h1v1h-1z"/>
		<path id="Path 18" class="s2" d="m454 259h1v1h-1zm-159 8h1v1h-1zm-34 38h1v1h-1zm-2 1h1v1h-1z"/>
		<path id="Path 19" class="s4" d="m267 259h1v1h-1zm-8 5h1v1h-1zm-1 1h1v1h-1zm24 2h1v1h-1zm-27 1h1v1h-1zm26 0h1v1h-1zm-1 1h1v1h-1zm23 22h1v1h-1zm-16 6h1v1h-1zm9 0h1v1h-1zm2 3h1v1h-1zm132 1h1v1h-1zm44 0h1v1h-1zm-7 6h1v1h-1zm-7 3h1v1h-1z"/>
		<path id="Path 20" class="s6" d="m449 264h1v1h-1zm-165 2h1v1h-1zm-7 6h1v1h-1zm-1 2h1v1h-1zm-27 5h1v1h-1zm-1 2h1v1h-1zm28 4h1v1h-1zm-24 4h1v1h-1zm226 3h1v1h-1zm-52 1h1v1h-1zm-141 1h1v1h-1zm4 1h5-7 1zm-37 0h1v1h-1zm49 0h1v1h-1zm126 0h1v1h-1zm-174 2h1v1h-1zm47 0h1v1h-1zm128 0h1v1h-1zm48 0h1v1h-1zm-222 1h1v1h-1zm45 0h1v1h-1zm176 1h1v1h-1zm-220 1h1v1h-1zm1 1h1v1h-1zm41 0h1v1h-1zm-40 1h1v1h-1zm39 0h1v1h-1zm135 0h1v1h-1zm42 0h1v1h-1zm-215 1h1v1h-1zm37 0h1v1h-1zm137 0h1v1h-1zm40 0h1v1h-1zm-213 1h1v1h-1zm35 0h1v1h-1zm139 0h1v1h-1zm38 0h1v1h-1zm-179 1h1v1h-1zm142 0h1v1h-1zm36 0h1v1h-1zm-208 1h1v1h-1zm29 0h1v1h-1zm145 0h1v1h-1zm-172 1h1v1h-1zm173 0h1v1h-1zm-171 1h1v1h-1zm21 0h1v1h-1zm152 0h1v1h-1zm-170 1h1v1h-1zm195 0h1v1h-1zm-21 1h1v1h-1z"/>
		<path id="Path 21" class="s7" d="m477 296h1v1h-1z"/>
		<path id="Path 22" class="s8" d="m253 269h1v1h-1zm-1 2h1v1h-1zm-1 1h1v1h-1zm0 24h1v1h-1z"/>
	</g>
</svg>